<?xml version="1.0" encoding="utf-8"?>
<!-- Generator: Adobe Illustrator 21.1.0, SVG Export Plug-In . SVG Version: 6.00 Build 0)  -->
<svg version="1.1" id="Layer_1" xmlns="http://www.w3.org/2000/svg" xmlns:xlink="http://www.w3.org/1999/xlink" x="0px" y="0px"
	 viewBox="0 0 190 55" style="enable-background:new 0 0 190 55;" xml:space="preserve">
<style type="text/css">
	.st0{fill:#E5E9E9;}
	.st1{fill:#C1C7CD;}
	.st2{enable-background:new    ;}
	.st3{fill:#FFFFFF;}
</style>
<g>
	<path class="st0" d="M77.2-90.1h-3.5v-7.8v-0.7c0-0.8-0.2-1.4-0.7-1.8s-1-0.6-1.6-0.6s-1.1,0.2-1.6,0.6s-0.7,1-0.7,1.8v8.5h-3.5
		v-7.8c0-2.3,0.6-3.8,1.8-4.6c1.2-0.8,2.5-1.2,3.9-1.3c0.8,0,1.5,0.1,2.3,0.3c0.7,0.2,1.4,0.5,2,1c0.5-0.4,1.1-0.7,1.8-0.9
		c0.7-0.2,1.4-0.3,2.1-0.3c1.5,0,2.8,0.4,4.1,1.2c1.2,0.8,1.9,2.3,1.9,4.7v7.8h-1.8c-0.5,0-0.9-0.2-1.2-0.5
		c-0.3-0.3-0.5-0.7-0.5-1.2v-6.8c0-0.8-0.2-1.4-0.7-1.8s-1-0.6-1.6-0.6s-1.1,0.2-1.6,0.6s-0.7,1-0.7,1.8v0.7v7.7L77.2-90.1
		L77.2-90.1z"/>
	<path class="st0" d="M96.6-94.2h2.5C98.7-92.8,98-91.7,97-91c-1,0.8-2.3,1.2-3.9,1.2c-1.9,0-3.4-0.6-4.5-1.9
		c-1.1-1.2-1.6-2.9-1.6-5.2c0-2.1,0.5-3.8,1.6-5s2.6-1.9,4.5-1.9c2,0,3.6,0.6,4.7,1.8c1.1,1.2,1.6,3,1.6,5.2c0,0.1,0,0.3,0,0.4
		s0,0.2,0,0.2c0,0.2,0,0.3-0.1,0.4h-8.7c0,1,0.3,1.8,0.8,2.3c0.4,0.5,1.1,0.8,2,0.8c0.6,0,1.1-0.1,1.5-0.4c0.1,0,0.2-0.1,0.3-0.2
		c0.1-0.1,0.2-0.2,0.3-0.3c0-0.1,0.2-0.2,0.4-0.4C95.8-94.1,96.2-94.2,96.6-94.2z M90.6-98.1h5.1c-0.1-0.9-0.3-1.6-0.7-2
		c-0.4-0.5-1-0.7-1.8-0.7c-0.7,0-1.3,0.2-1.8,0.7S90.6-99,90.6-98.1z"/>
	<path class="st0" d="M100.8-90.1v-6.5c0-1.3,0.2-2.4,0.6-3.3s0.9-1.6,1.6-2.1c0.6-0.5,1.4-0.9,2.2-1.1c0.9-0.2,1.7-0.4,2.6-0.4
		c0.1,0,0.2,0,0.3,0s0.2,0,0.3,0v3.7h-1.2c-1,0-1.7,0.2-2.2,0.7s-0.7,1.2-0.7,2.2v6.9L100.8-90.1L100.8-90.1z"/>
	<path class="st0" d="M110-107.3h1.8c0.5,0,0.9,0.2,1.2,0.5c0.3,0.3,0.5,0.7,0.5,1.2V-90H110V-107.3z"/>
	<path class="st0" d="M115.3-107.3h1.8c0.5,0,0.9,0.2,1.2,0.5c0.3,0.3,0.5,0.7,0.5,1.2v1.1h-3.5V-107.3z M115.3-103.4h1.8
		c0.5,0,0.9,0.2,1.2,0.5c0.3,0.3,0.5,0.7,0.5,1.2v11.6h-3.5V-103.4z"/>
	<path class="st0" d="M131.6-90.1h-1.8c-0.5,0-0.9-0.2-1.2-0.5s-0.5-0.7-0.5-1.2v-6.8c0-0.8-0.2-1.4-0.7-1.8s-1-0.6-1.6-0.6
		s-1.1,0.2-1.6,0.6s-0.7,1-0.7,1.8v8.5H120v-7.8c0-2.3,0.6-3.8,1.8-4.6c1.2-0.8,2.5-1.2,3.9-1.3c1.5,0,2.8,0.4,4.1,1.2
		c1.2,0.8,1.9,2.3,1.9,4.7L131.6-90.1C131.7-90.1,131.6-90.1,131.6-90.1z"/>
	<path class="st0" d="M137.9-108.3l-1.8,5.6h-1.5l1.4-5.6H137.9z"/>
	<path class="st0" d="M140.5-107.3h1.8c0.5,0,0.9,0.2,1.2,0.5s0.5,0.7,0.5,1.2v1.1h-3.5V-107.3z M140.5-103.4h1.8
		c0.5,0,0.9,0.2,1.2,0.5s0.5,0.7,0.5,1.2v11.6h-3.5V-103.4z"/>
	<path class="st0" d="M156.8-90.1H155c-0.5,0-0.9-0.2-1.2-0.5s-0.5-0.7-0.5-1.2v-6.8c0-0.8-0.2-1.4-0.7-1.8s-1-0.6-1.6-0.6
		s-1.1,0.2-1.6,0.6s-0.7,1-0.7,1.8v8.5h-3.5v-7.8c0-2.3,0.6-3.8,1.8-4.6c1.2-0.8,2.5-1.2,3.9-1.3c1.5,0,2.8,0.4,4.1,1.2
		c1.2,0.8,1.9,2.3,1.9,4.7L156.8-90.1C156.9-90.1,156.8-90.1,156.8-90.1z"/>
	<path class="st0" d="M168.6-103.4v4.9l4.3-4.9h4.2l-4.8,5.1l4.8,8.2H173l-2.5-4.5c-0.5-0.9-0.9-1.3-1.3-1.2
		c-0.4,0.1-0.6,0.3-0.6,0.6v1.9v3.2h-3.4v-17.2h1.8c0.5,0,0.9,0.2,1.2,0.5s0.5,0.7,0.5,1.2L168.6-103.4L168.6-103.4z"/>
	<path class="st0" d="M187.4-90.6c-0.7,0.4-1.4,0.6-2.2,0.7s-1.5,0.1-2.1,0.1c-1.2,0-2.3-0.3-3.2-1s-1.4-1.7-1.4-3.2
		c0-1.4,0.4-2.4,1.2-3s1.9-1,3.1-1.2c0.2,0,0.4,0,0.6-0.1c0.2-0.1,0.5-0.1,0.8-0.1c1.5-0.2,2.2-0.6,2.2-1.3c0-0.5-0.3-0.8-0.8-1
		s-1-0.2-1.4-0.2c-0.5,0-0.9,0.1-1.3,0.2c-0.4,0.1-0.6,0.4-0.8,0.8h-3.4c0.1-1,0.6-1.9,1.4-2.6c0.9-0.8,2.2-1.2,3.9-1.2
		c1.9,0,3.3,0.3,4.2,1c1,0.7,1.5,1.6,1.5,2.8v4.6c0,1.3-0.2,2.4-0.7,3.1C188.5-91.5,188-90.9,187.4-90.6z M186.5-96.8
		c-0.5,0.2-1.1,0.5-2,0.7l-1.2,0.3c-0.6,0.2-1,0.4-1.3,0.7c-0.2,0.4-0.4,0.7-0.4,1.1c0,0.5,0.2,0.9,0.5,1.2c0.3,0.3,0.7,0.4,1.3,0.4
		c0.9,0,1.7-0.3,2.2-0.8s0.8-1.3,0.8-2.2L186.5-96.8L186.5-96.8z"/>
	<path class="st0" d="M191.4-90.1v-2.7l7.2-7.9h-5.1c-0.5,0-0.9-0.2-1.2-0.5s-0.5-0.7-0.5-1.2v-1.1h10.9v2.9l-7.1,7.6h7.3v2.9
		C202.8-90.1,191.4-90.1,191.4-90.1z"/>
	<path class="st0" d="M213-90.6c-0.7,0.4-1.4,0.6-2.2,0.7s-1.5,0.1-2.1,0.1c-1.2,0-2.3-0.3-3.2-1s-1.4-1.7-1.4-3.2
		c0-1.4,0.4-2.4,1.2-3s1.9-1,3.1-1.2c0.2,0,0.4,0,0.6-0.1c0.2-0.1,0.5-0.1,0.8-0.1c1.5-0.2,2.2-0.6,2.2-1.3c0-0.5-0.3-0.8-0.8-1
		s-1-0.2-1.4-0.2c-0.5,0-0.9,0.1-1.3,0.2c-0.4,0.1-0.6,0.4-0.8,0.8h-3.4c0.1-1,0.6-1.9,1.4-2.6c0.9-0.8,2.2-1.2,3.9-1.2
		c1.9,0,3.3,0.3,4.2,1c1,0.7,1.5,1.6,1.5,2.8v4.6c0,1.3-0.2,2.4-0.7,3.1C214.3-91.5,213.6-90.9,213-90.6z M212.3-96.8
		c-0.5,0.2-1.1,0.5-2,0.7l-1.2,0.3c-0.6,0.2-1,0.4-1.3,0.7c-0.2,0.4-0.4,0.7-0.4,1.1c0,0.5,0.2,0.9,0.5,1.2c0.3,0.3,0.7,0.4,1.3,0.4
		c0.9,0,1.7-0.3,2.2-0.8s0.8-1.3,0.8-2.2L212.3-96.8L212.3-96.8z"/>
	<path class="st0" d="M228.6-90.1h-1.8c-0.5,0-0.9-0.2-1.2-0.5s-0.5-0.7-0.5-1.2v-6.8c0-0.8-0.2-1.4-0.7-1.8s-1-0.6-1.6-0.6
		s-1.1,0.2-1.6,0.6s-0.7,1-0.7,1.8v8.5H217v-7.8c0-2.3,0.6-3.8,1.8-4.6c1.2-0.8,2.5-1.2,3.9-1.3c1.5,0,2.8,0.4,4.1,1.2
		c1.2,0.8,1.9,2.3,1.9,4.7L228.6-90.1C228.7-90.1,228.6-90.1,228.6-90.1z"/>
	<path class="st0" d="M230.5-107.3h1.8c0.5,0,0.9,0.2,1.2,0.5s0.5,0.7,0.5,1.2v1.1h-3.5V-107.3z M230.5-103.4h1.8
		c0.5,0,0.9,0.2,1.2,0.5s0.5,0.7,0.5,1.2v11.6h-3.5V-103.4z"/>
</g>
<g>
	<path class="st1" d="M65.3-75.8h2.6c0,0.5,0.2,0.9,0.6,1.1c0.4,0.3,0.9,0.4,1.5,0.4c0.5,0,0.8-0.1,1.2-0.3c0.3-0.2,0.5-0.4,0.5-0.7
		c0-0.5-0.5-0.8-1.6-1c-0.5-0.1-0.8-0.2-1-0.2c-1.3-0.3-2.2-0.7-2.7-1.2s-0.8-1.1-0.8-1.8c0-1,0.4-1.8,1.1-2.4
		c0.8-0.6,1.7-0.9,2.9-0.9c1.3,0,2.4,0.3,3.1,0.9s1.1,1.4,1.2,2.5h-1.6c-0.5,0-0.8-0.2-1.1-0.6c-0.1-0.1-0.2-0.2-0.3-0.3
		c-0.3-0.2-0.7-0.3-1.2-0.3s-0.9,0.1-1.1,0.2c-0.3,0.1-0.4,0.3-0.4,0.6c0,0.4,0.7,0.7,2,1c0.2,0.1,0.3,0.1,0.4,0.1s0.2,0,0.3,0
		c1.3,0.3,2.2,0.7,2.7,1.1c0.5,0.5,0.7,1.1,0.7,1.8c0,1.1-0.4,2-1.2,2.6c-0.8,0.6-1.9,0.8-3.4,0.8c-1.4,0-2.5-0.3-3.2-0.9
		S65.4-74.7,65.3-75.8L65.3-75.8C65.4-75.8,65.3-75.8,65.3-75.8z"/>
	<path class="st1" d="M76.1-82.5h1.4c0.4,0,0.7,0.1,0.9,0.4c0.3,0.3,0.4,0.6,0.4,0.9v8.8h-2.6v-10.1C76.2-82.5,76.1-82.5,76.1-82.5z
		"/>
	<path class="st1" d="M88.7-72.5h-1.3c-0.4,0-0.7-0.1-0.9-0.4c-0.2-0.2-0.4-0.5-0.4-0.9v-5.1c0-0.6-0.2-1-0.5-1.3
		c-0.4-0.3-0.8-0.4-1.2-0.4c-0.5,0-0.9,0.1-1.2,0.4c-0.4,0.3-0.5,0.7-0.5,1.3v6.4h-2.6v-5.9c0-1.7,0.4-2.9,1.3-3.4
		c0.9-0.6,1.9-0.9,3-0.9s2.1,0.3,3.1,0.9c0.9,0.6,1.4,1.8,1.4,3.5v5.8H88.7z"/>
	<path class="st1" d="M90.5-82.5h1.4c0.4,0,0.7,0.1,0.9,0.4c0.3,0.3,0.4,0.6,0.4,0.9v8.8h-2.6v-10.1C90.6-82.5,90.5-82.5,90.5-82.5z
		"/>
	<path class="st1" d="M94.5-72.5v-4.9c0-1,0.1-1.8,0.4-2.5s0.7-1.2,1.2-1.6s1-0.7,1.7-0.8c0.6-0.2,1.3-0.3,2-0.3c0.1,0,0.1,0,0.2,0
		s0.1,0,0.2,0v2.8h-0.9c-0.7,0-1.3,0.2-1.6,0.5c-0.4,0.4-0.5,0.9-0.5,1.7v5.2L94.5-72.5L94.5-72.5z"/>
	<path class="st1" d="M101.7-85.5h1.4c0.4,0,0.7,0.1,0.9,0.4c0.3,0.2,0.4,0.5,0.4,0.9v11.8h-2.6v-13.1
		C101.8-85.5,101.7-85.5,101.7-85.5z"/>
	<path class="st1" d="M112.8-75.6h1.9c-0.3,1.1-0.8,1.9-1.6,2.4c-0.8,0.6-1.8,0.9-2.9,0.9c-1.4,0-2.6-0.5-3.4-1.4s-1.2-2.2-1.2-3.9
		c0-1.6,0.4-2.9,1.2-3.8c0.8-0.9,1.9-1.4,3.4-1.4s2.7,0.5,3.5,1.4s1.2,2.2,1.2,3.9c0,0.1,0,0.2,0,0.3s0,0.1,0,0.2s0,0.2,0,0.3h-6.5
		c0,0.8,0.2,1.4,0.6,1.7c0.3,0.4,0.8,0.6,1.5,0.6c0.4,0,0.8-0.1,1.1-0.3c0.1,0,0.1-0.1,0.2-0.1c0.1-0.1,0.1-0.1,0.2-0.2
		c0-0.1,0.1-0.2,0.3-0.3C112.3-75.5,112.6-75.6,112.8-75.6z M108.3-78.5h3.9c-0.1-0.7-0.2-1.2-0.5-1.5c-0.3-0.4-0.8-0.5-1.4-0.5
		s-1,0.2-1.4,0.5C108.6-79.7,108.3-79.2,108.3-78.5z"/>
	<path class="st1" d="M116.5-72.5v-4.9c0-1,0.1-1.8,0.4-2.5s0.7-1.2,1.2-1.6s1-0.7,1.7-0.8c0.6-0.2,1.3-0.3,2-0.3c0.1,0,0.1,0,0.2,0
		s0.1,0,0.2,0v2.8h-0.9c-0.7,0-1.3,0.2-1.6,0.5c-0.4,0.4-0.5,0.9-0.5,1.7v5.2L116.5-72.5L116.5-72.5z"/>
	<path class="st1" d="M123.8-82.5h1.4c0.4,0,0.7,0.1,0.9,0.4c0.3,0.3,0.4,0.6,0.4,0.9v8.8H124v-10.1C124-82.5,123.8-82.5,123.8-82.5
		z"/>
	<path class="st1" d="M136.5-72.5h-1.3c-0.4,0-0.7-0.1-0.9-0.4c-0.2-0.2-0.4-0.5-0.4-0.9v-5.1c0-0.6-0.2-1-0.5-1.3
		c-0.4-0.3-0.8-0.4-1.2-0.4s-0.9,0.1-1.2,0.4c-0.4,0.3-0.5,0.7-0.5,1.3v6.4h-2.6v-5.9c0-1.7,0.4-2.9,1.3-3.4c0.9-0.6,1.9-0.9,3-0.9
		s2.1,0.3,3.1,0.9c0.9,0.6,1.4,1.8,1.4,3.5v5.8H136.5z"/>
	<path class="st1" d="M138.3-82.5h1.4c0.4,0,0.7,0.1,0.9,0.4c0.3,0.3,0.4,0.6,0.4,0.9v8.8h-2.6L138.3-82.5L138.3-82.5z"/>
	<path class="st1" d="M147.5-75.8h2.6c0,0.5,0.2,0.9,0.6,1.1c0.4,0.3,0.9,0.4,1.5,0.4c0.5,0,0.8-0.1,1.2-0.3
		c0.3-0.2,0.5-0.4,0.5-0.7c0-0.5-0.5-0.8-1.6-1c-0.5-0.1-0.8-0.2-1-0.2c-1.3-0.3-2.2-0.7-2.7-1.2s-0.8-1.1-0.8-1.8
		c0-1,0.4-1.8,1.1-2.4c0.8-0.6,1.7-0.9,2.9-0.9c1.3,0,2.4,0.3,3.1,0.9c0.7,0.6,1.1,1.4,1.2,2.5h-1.6c-0.5,0-0.8-0.2-1.1-0.6
		c-0.1-0.1-0.2-0.2-0.3-0.3c-0.3-0.2-0.7-0.3-1.2-0.3s-0.9,0.1-1.1,0.2c-0.2,0.2-0.3,0.4-0.3,0.7c0,0.4,0.7,0.7,2,1
		c0.2,0.1,0.3,0.1,0.4,0.1c0.1,0,0.2,0,0.3,0c1.3,0.3,2.2,0.7,2.7,1.1c0.5,0.5,0.7,1.1,0.7,1.8c0,1.1-0.4,2-1.2,2.6
		s-1.9,0.8-3.4,0.8c-1.4,0-2.5-0.3-3.2-0.9s-1.1-1.4-1.1-2.5v-0.1C147.7-75.8,147.5-75.8,147.5-75.8z"/>
	<path class="st1" d="M165-75.6h1.9c-0.3,1.1-0.8,1.9-1.6,2.4c-0.8,0.6-1.8,0.9-2.9,0.9c-1.4,0-2.6-0.5-3.4-1.4
		c-0.8-0.9-1.2-2.2-1.2-3.9c0-1.6,0.4-2.9,1.2-3.8s1.9-1.4,3.4-1.4s2.7,0.5,3.5,1.4s1.2,2.2,1.2,3.9c0,0.1,0,0.2,0,0.3s0,0.1,0,0.2
		s0,0.2,0,0.3h-6.5c0,0.8,0.2,1.4,0.6,1.7c0.3,0.4,0.8,0.6,1.5,0.6c0.4,0,0.8-0.1,1.1-0.3c0.1,0,0.1-0.1,0.2-0.1
		c0.1-0.1,0.1-0.1,0.2-0.2c0-0.1,0.1-0.2,0.3-0.3C164.5-75.5,164.6-75.6,165-75.6z M160.5-78.5h3.9c-0.1-0.7-0.2-1.2-0.5-1.5
		c-0.3-0.4-0.8-0.5-1.4-0.5c-0.6,0-1,0.2-1.4,0.5C160.6-79.7,160.5-79.2,160.5-78.5z"/>
	<path class="st1" d="M177.4-72.5H176c-0.4,0-0.7-0.1-0.9-0.4c-0.2-0.2-0.4-0.5-0.4-0.9v-5.1c0-0.6-0.2-1-0.5-1.3
		c-0.4-0.3-0.8-0.4-1.2-0.4c-0.5,0-0.9,0.1-1.2,0.4c-0.4,0.3-0.5,0.7-0.5,1.3v6.4h-2.6v-5.9c0-1.7,0.4-2.9,1.3-3.4
		c0.9-0.6,1.9-0.9,3-0.9s2.1,0.3,3.1,0.9c0.9,0.6,1.4,1.8,1.4,3.5v5.8H177.4z"/>
	<path class="st1" d="M187-84.2v3c0.3-0.5,0.7-0.9,1.2-1.2c0.5-0.3,1-0.4,1.7-0.4c1.2,0,2.2,0.5,2.9,1.5s1.1,2.3,1.1,3.8
		c0,1.6-0.4,2.8-1.1,3.8c-0.4,0.5-0.9,0.8-1.5,1s-1.3,0.3-1.9,0.3c-1.2,0-2.3-0.3-3.4-0.9c-1-0.6-1.5-1.8-1.5-3.6v-8.7h1.3
		c0.4,0,0.7,0.1,0.9,0.4C186.9-84.9,187-84.6,187-84.2z M191.4-77.6c0-0.9-0.2-1.6-0.6-2.1s-0.9-0.8-1.5-0.8c-0.7,0-1.2,0.3-1.6,0.8
		s-0.6,1.2-0.6,2.2c0,1.1,0.2,1.8,0.5,2.3c0.4,0.5,0.9,0.8,1.6,0.8c0.7,0,1.2-0.3,1.6-0.8C191.1-75.8,191.4-76.6,191.4-77.6z"/>
	<path class="st1" d="M202.5-75.6h1.9c-0.3,1.1-0.8,1.9-1.6,2.4c-0.8,0.6-1.8,0.9-2.9,0.9c-1.4,0-2.6-0.5-3.4-1.4s-1.2-2.2-1.2-3.9
		c0-1.6,0.4-2.9,1.2-3.8s1.9-1.4,3.4-1.4s2.7,0.5,3.5,1.4s1.2,2.2,1.2,3.9c0,0.1,0,0.2,0,0.3s0,0.1,0,0.2s0,0.2,0,0.3h-6.5
		c0,0.8,0.2,1.4,0.6,1.7c0.3,0.4,0.8,0.6,1.5,0.6c0.4,0,0.8-0.1,1.1-0.3c0.1,0,0.1-0.1,0.2-0.1c0.1-0.1,0.1-0.1,0.2-0.2
		c0-0.1,0.1-0.2,0.3-0.3C202-75.5,202.3-75.6,202.5-75.6z M198-78.5h3.9c-0.1-0.7-0.2-1.2-0.5-1.5c-0.3-0.4-0.8-0.5-1.4-0.5
		c-0.6,0-1,0.2-1.4,0.5C198.3-79.7,198-79.2,198-78.5z"/>
	<path class="st1" d="M206.3-85.5h1.4c0.4,0,0.7,0.1,0.9,0.4c0.3,0.2,0.4,0.5,0.4,0.9v11.8h-2.6L206.3-85.5L206.3-85.5z"/>
	<path class="st1" d="M210.8-85.5h1.4c0.4,0,0.7,0.1,0.9,0.4c0.3,0.3,0.4,0.6,0.4,0.9v0.8h-2.6L210.8-85.5L210.8-85.5z M210.8-82.5
		h1.4c0.4,0,0.7,0.1,0.9,0.4c0.3,0.3,0.4,0.6,0.4,0.9v8.8h-2.6L210.8-82.5L210.8-82.5z"/>
	<path class="st1" d="M214.6-72.5v-4.9c0-1,0.1-1.8,0.4-2.5c0.3-0.7,0.7-1.2,1.2-1.6s1-0.7,1.7-0.8c0.6-0.2,1.3-0.3,2-0.3
		c0.1,0,0.1,0,0.2,0s0.1,0,0.2,0v2.8h-0.9c-0.7,0-1.3,0.2-1.6,0.5c-0.4,0.4-0.5,0.9-0.5,1.7v5.2L214.6-72.5L214.6-72.5z"/>
	<path class="st1" d="M221.9-85.5h1.4c0.4,0,0.7,0.1,0.9,0.4c0.3,0.2,0.4,0.5,0.4,0.9v11.8H222L221.9-85.5L221.9-85.5z"/>
	<path class="st1" d="M233.1-75.6h1.9c-0.3,1.1-0.8,1.9-1.6,2.4c-0.8,0.6-1.8,0.9-2.9,0.9c-1.4,0-2.6-0.5-3.4-1.4s-1.2-2.2-1.2-3.9
		c0-1.6,0.4-2.9,1.2-3.8s1.9-1.4,3.4-1.4s2.7,0.5,3.5,1.4s1.2,2.2,1.2,3.9c0,0.1,0,0.2,0,0.3s0,0.1,0,0.2s0,0.2,0,0.3h-6.5
		c0,0.8,0.2,1.4,0.6,1.7c0.3,0.4,0.8,0.6,1.5,0.6c0.4,0,0.8-0.1,1.1-0.3c0.1,0,0.1-0.1,0.2-0.1c0.1-0.1,0.1-0.1,0.2-0.2
		c0-0.1,0.1-0.2,0.3-0.3C232.5-75.5,232.9-75.6,233.1-75.6z M228.5-78.5h3.9c-0.1-0.7-0.2-1.2-0.5-1.5c-0.3-0.4-0.8-0.5-1.4-0.5
		s-1,0.2-1.4,0.5C228.8-79.7,228.6-79.2,228.5-78.5z"/>
</g>
<text transform="matrix(1 0 0 1 258.9832 25.6625)" class="st0" style="font-family:'Harabara'; font-size:24px;">merlin&apos;in kazani</text>
<text transform="matrix(1 0 0 1 258.9434 38.8125)" class="st1" style="font-family:'Harabara'; font-size:14.4578px;">sinirlarini sen belirle</text>
<g class="st2">
	<path class="st1" d="M52.8,38.1h1.9c0,0.4,0.2,0.6,0.4,0.8c0.3,0.2,0.6,0.3,1.1,0.3c0.3,0,0.6-0.1,0.9-0.2c0.2-0.1,0.3-0.3,0.3-0.5
		c0-0.3-0.4-0.6-1.2-0.7c-0.3-0.1-0.6-0.1-0.7-0.2c-1-0.2-1.6-0.5-2-0.9c-0.4-0.3-0.6-0.8-0.6-1.3c0-0.7,0.3-1.3,0.8-1.7
		c0.6-0.4,1.3-0.6,2.2-0.6c1,0,1.7,0.2,2.3,0.6c0.5,0.5,0.8,1.1,0.9,1.8h-1.2c-0.4,0-0.6-0.2-0.8-0.5c-0.1-0.1-0.1-0.1-0.2-0.2
		c-0.2-0.2-0.5-0.2-0.9-0.2c-0.4,0-0.6,0.1-0.8,0.2c-0.2,0.1-0.2,0.3-0.2,0.5c0,0.3,0.5,0.5,1.4,0.7c0.1,0,0.2,0.1,0.3,0.1
		s0.2,0,0.2,0c0.9,0.2,1.6,0.5,2,0.8c0.4,0.3,0.5,0.8,0.5,1.3c0,0.8-0.3,1.4-0.9,1.9c-0.6,0.4-1.4,0.6-2.5,0.6
		c-1.1,0-1.8-0.2-2.4-0.6C53.1,39.6,52.8,39,52.8,38.1L52.8,38.1z"/>
	<path class="st1" d="M61,33.1h1c0.3,0,0.5,0.1,0.7,0.3s0.3,0.4,0.3,0.7v6.4H61V33.1z"/>
	<path class="st1" d="M70.6,40.5h-1c-0.3,0-0.5-0.1-0.7-0.3c-0.2-0.2-0.3-0.4-0.3-0.7v-3.8c0-0.4-0.1-0.8-0.4-1
		c-0.3-0.2-0.6-0.3-0.9-0.3c-0.3,0-0.6,0.1-0.9,0.3c-0.3,0.2-0.4,0.5-0.4,1v4.7h-1.9v-4.3c0-1.3,0.3-2.1,1-2.5s1.4-0.7,2.2-0.7
		c0.8,0,1.6,0.2,2.2,0.6c0.7,0.4,1,1.3,1,2.6V40.5z"/>
	<path class="st1" d="M72.2,33.1h1c0.3,0,0.5,0.1,0.7,0.3s0.3,0.4,0.3,0.7v6.4h-1.9V33.1z"/>
	<path class="st1" d="M75.3,40.5v-3.6c0-0.7,0.1-1.3,0.3-1.8c0.2-0.5,0.5-0.9,0.9-1.2c0.4-0.3,0.8-0.5,1.2-0.6
		c0.5-0.1,1-0.2,1.5-0.2c0,0,0.1,0,0.1,0c0.1,0,0.1,0,0.1,0v2h-0.6c-0.5,0-0.9,0.1-1.2,0.4c-0.3,0.3-0.4,0.7-0.4,1.2v3.8H75.3z"/>
	<path class="st1" d="M80.9,31h1c0.3,0,0.5,0.1,0.7,0.3c0.2,0.2,0.3,0.4,0.3,0.7v8.6h-1.9V31z"/>
	<path class="st1" d="M89,40.2c-0.4,0.2-0.8,0.3-1.2,0.4c-0.4,0-0.8,0.1-1.1,0.1c-0.7,0-1.2-0.2-1.7-0.5c-0.5-0.4-0.7-1-0.7-1.8
		c0-0.8,0.2-1.3,0.7-1.7c0.5-0.3,1-0.6,1.7-0.7c0.1,0,0.2,0,0.3,0c0.1,0,0.3-0.1,0.4-0.1c0.8-0.1,1.2-0.4,1.2-0.7
		c0-0.3-0.1-0.5-0.4-0.5c-0.3-0.1-0.5-0.1-0.8-0.1c-0.3,0-0.5,0-0.7,0.1c-0.2,0.1-0.4,0.2-0.4,0.4h-1.9c0.1-0.6,0.3-1,0.8-1.4
		c0.5-0.4,1.2-0.6,2.1-0.6c1,0,1.8,0.2,2.3,0.5c0.5,0.4,0.8,0.9,0.8,1.6v2.5c0,0.7-0.1,1.3-0.4,1.7C89.7,39.7,89.4,40,89,40.2z
		 M88.6,36.8c-0.3,0.1-0.6,0.2-1.1,0.4l-0.6,0.1c-0.3,0.1-0.6,0.2-0.7,0.4c-0.1,0.2-0.2,0.4-0.2,0.6c0,0.3,0.1,0.5,0.2,0.7
		c0.2,0.1,0.4,0.2,0.7,0.2c0.5,0,0.9-0.1,1.2-0.4c0.3-0.3,0.4-0.7,0.4-1.2V36.8z"/>
	<path class="st1" d="M91.8,40.5v-3.6c0-0.7,0.1-1.3,0.3-1.8c0.2-0.5,0.5-0.9,0.9-1.2c0.4-0.3,0.8-0.5,1.2-0.6
		c0.5-0.1,1-0.2,1.5-0.2c0,0,0.1,0,0.1,0c0.1,0,0.1,0,0.1,0v2h-0.6c-0.5,0-0.9,0.1-1.2,0.4c-0.3,0.3-0.4,0.7-0.4,1.2v3.8H91.8z"/>
	<path class="st1" d="M97.4,33.1h1c0.3,0,0.5,0.1,0.7,0.3c0.2,0.2,0.3,0.4,0.3,0.7v6.4h-1.9V33.1z"/>
	<path class="st1" d="M107,40.5h-1c-0.3,0-0.5-0.1-0.7-0.3c-0.2-0.2-0.3-0.4-0.3-0.7v-3.8c0-0.4-0.1-0.8-0.4-1s-0.6-0.3-0.9-0.3
		c-0.3,0-0.6,0.1-0.9,0.3s-0.4,0.5-0.4,1v4.7h-1.9v-4.3c0-1.3,0.3-2.1,1-2.5s1.4-0.7,2.2-0.7c0.8,0,1.6,0.2,2.2,0.6
		c0.7,0.4,1,1.3,1,2.6V40.5z"/>
	<path class="st1" d="M108.6,33.1h1c0.3,0,0.5,0.1,0.7,0.3c0.2,0.2,0.3,0.4,0.3,0.7v6.4h-1.9V33.1z"/>
	<path class="st1" d="M115.9,38.1h1.9c0,0.4,0.2,0.6,0.4,0.8c0.3,0.2,0.6,0.3,1.1,0.3c0.3,0,0.6-0.1,0.9-0.2
		c0.2-0.1,0.3-0.3,0.3-0.5c0-0.3-0.4-0.6-1.2-0.7c-0.3-0.1-0.6-0.1-0.7-0.2c-1-0.2-1.6-0.5-2-0.9c-0.4-0.3-0.6-0.8-0.6-1.3
		c0-0.7,0.3-1.3,0.8-1.7c0.6-0.4,1.3-0.6,2.2-0.6c1,0,1.7,0.2,2.3,0.6c0.5,0.5,0.8,1.1,0.9,1.8H121c-0.4,0-0.6-0.2-0.8-0.5
		c-0.1-0.1-0.1-0.1-0.2-0.2c-0.2-0.2-0.5-0.2-0.9-0.2c-0.4,0-0.6,0.1-0.8,0.2c-0.2,0.1-0.2,0.3-0.2,0.5c0,0.3,0.5,0.5,1.4,0.7
		c0.1,0,0.2,0.1,0.3,0.1s0.2,0,0.2,0c0.9,0.2,1.6,0.5,2,0.8c0.4,0.3,0.5,0.8,0.5,1.3c0,0.8-0.3,1.4-0.9,1.9
		c-0.6,0.4-1.4,0.6-2.5,0.6c-1.1,0-1.8-0.2-2.4-0.6C116.2,39.6,115.9,39,115.9,38.1L115.9,38.1z"/>
	<path class="st1" d="M129,38.2h1.4c-0.2,0.8-0.6,1.4-1.2,1.8c-0.6,0.4-1.3,0.6-2.2,0.6c-1.1,0-1.9-0.3-2.5-1
		c-0.6-0.7-0.9-1.6-0.9-2.9c0-1.2,0.3-2.1,0.9-2.8c0.6-0.7,1.4-1,2.5-1c1.1,0,2,0.3,2.6,1c0.6,0.7,0.9,1.6,0.9,2.9
		c0,0.1,0,0.1,0,0.2s0,0.1,0,0.1c0,0.1,0,0.2,0,0.2h-4.8c0,0.6,0.2,1,0.4,1.3c0.2,0.3,0.6,0.4,1.1,0.4c0.3,0,0.6-0.1,0.8-0.2
		c0.1,0,0.1-0.1,0.2-0.1c0,0,0.1-0.1,0.2-0.2c0-0.1,0.1-0.1,0.2-0.2C128.6,38.3,128.8,38.2,129,38.2z M125.7,36.1h2.8
		c0-0.5-0.2-0.9-0.4-1.1c-0.2-0.3-0.6-0.4-1-0.4c-0.4,0-0.7,0.1-1,0.4C125.9,35.2,125.7,35.6,125.7,36.1z"/>
	<path class="st1" d="M138.4,40.5h-1c-0.3,0-0.5-0.1-0.7-0.3c-0.2-0.2-0.3-0.4-0.3-0.7v-3.8c0-0.4-0.1-0.8-0.4-1s-0.6-0.3-0.9-0.3
		c-0.3,0-0.6,0.1-0.9,0.3s-0.4,0.5-0.4,1v4.7H132v-4.3c0-1.3,0.3-2.1,1-2.5s1.4-0.7,2.2-0.7c0.8,0,1.6,0.2,2.2,0.6
		c0.7,0.4,1,1.3,1,2.6V40.5z"/>
	<path class="st1" d="M146,31.9v2.2c0.2-0.4,0.5-0.6,0.9-0.9c0.3-0.2,0.7-0.3,1.2-0.3c0.9,0,1.6,0.4,2.1,1.1
		c0.6,0.7,0.8,1.7,0.8,2.8s-0.3,2.1-0.8,2.8c-0.3,0.4-0.7,0.6-1.1,0.8c-0.5,0.2-0.9,0.2-1.4,0.2c-0.9,0-1.7-0.2-2.5-0.7
		s-1.1-1.3-1.1-2.7V31h0.9c0.3,0,0.5,0.1,0.7,0.3C146,31.4,146,31.6,146,31.9z M149.2,36.8c0-0.7-0.1-1.2-0.4-1.6
		c-0.3-0.4-0.7-0.6-1.1-0.6c-0.5,0-0.9,0.2-1.2,0.6c-0.3,0.4-0.4,0.9-0.4,1.6c0,0.8,0.1,1.3,0.4,1.7c0.3,0.4,0.7,0.6,1.2,0.6
		c0.5,0,0.9-0.2,1.2-0.6C149.1,38.1,149.2,37.5,149.2,36.8z"/>
	<path class="st1" d="M157.7,38.2h1.4c-0.2,0.8-0.6,1.4-1.2,1.8c-0.6,0.4-1.3,0.6-2.2,0.6c-1.1,0-1.9-0.3-2.5-1
		c-0.6-0.7-0.9-1.6-0.9-2.9c0-1.2,0.3-2.1,0.9-2.8c0.6-0.7,1.4-1,2.5-1c1.1,0,2,0.3,2.6,1c0.6,0.7,0.9,1.6,0.9,2.9
		c0,0.1,0,0.1,0,0.2s0,0.1,0,0.1c0,0.1,0,0.2,0,0.2h-4.8c0,0.6,0.2,1,0.4,1.3c0.2,0.3,0.6,0.4,1.1,0.4c0.3,0,0.6-0.1,0.8-0.2
		c0.1,0,0.1-0.1,0.2-0.1c0,0,0.1-0.1,0.2-0.2c0-0.1,0.1-0.1,0.2-0.2C157.3,38.3,157.5,38.2,157.7,38.2z M154.4,36.1h2.8
		c0-0.5-0.2-0.9-0.4-1.1c-0.2-0.3-0.6-0.4-1-0.4c-0.4,0-0.7,0.1-1,0.4C154.5,35.2,154.4,35.6,154.4,36.1z"/>
	<path class="st1" d="M160.7,31h1c0.3,0,0.5,0.1,0.7,0.3c0.2,0.2,0.3,0.4,0.3,0.7v8.6h-1.9V31z"/>
	<path class="st1" d="M164.3,31h1c0.3,0,0.5,0.1,0.7,0.3c0.2,0.2,0.3,0.4,0.3,0.7v0.6h-1.9V31z M164.3,33.1h1c0.3,0,0.5,0.1,0.7,0.3
		c0.2,0.2,0.3,0.4,0.3,0.7v6.4h-1.9V33.1z"/>
	<path class="st1" d="M167.5,40.5v-3.6c0-0.7,0.1-1.3,0.3-1.8c0.2-0.5,0.5-0.9,0.9-1.2c0.4-0.3,0.8-0.5,1.2-0.6
		c0.5-0.1,1-0.2,1.5-0.2c0,0,0.1,0,0.1,0s0.1,0,0.1,0v2H171c-0.5,0-0.9,0.1-1.2,0.4s-0.4,0.7-0.4,1.2v3.8H167.5z"/>
	<path class="st1" d="M173,31h1c0.3,0,0.5,0.1,0.7,0.3c0.2,0.2,0.3,0.4,0.3,0.7v8.6H173V31z"/>
	<path class="st1" d="M181.6,38.2h1.4c-0.2,0.8-0.6,1.4-1.2,1.8c-0.6,0.4-1.3,0.6-2.2,0.6c-1.1,0-1.9-0.3-2.5-1
		c-0.6-0.7-0.9-1.6-0.9-2.9c0-1.2,0.3-2.1,0.9-2.8c0.6-0.7,1.4-1,2.5-1c1.1,0,2,0.3,2.6,1c0.6,0.7,0.9,1.6,0.9,2.9
		c0,0.1,0,0.1,0,0.2s0,0.1,0,0.1c0,0.1,0,0.2,0,0.2h-4.8c0,0.6,0.2,1,0.4,1.3c0.2,0.3,0.6,0.4,1.1,0.4c0.3,0,0.6-0.1,0.8-0.2
		c0.1,0,0.1-0.1,0.2-0.1c0,0,0.1-0.1,0.2-0.2c0-0.1,0.1-0.1,0.2-0.2C181.2,38.3,181.3,38.2,181.6,38.2z M178.2,36.1h2.8
		c0-0.5-0.2-0.9-0.4-1.1c-0.2-0.3-0.6-0.4-1-0.4c-0.4,0-0.7,0.1-1,0.4C178.4,35.2,178.3,35.6,178.2,36.1z"/>
</g>
<g class="st2">
	<path class="st0" d="M63,29h-3v-6.7v-0.6c0-0.7-0.2-1.2-0.6-1.5c-0.4-0.3-0.9-0.5-1.4-0.5s-1,0.2-1.4,0.5C56.2,20.5,56,21,56,21.7
		V29h-3v-6.7c0-2,0.5-3.3,1.5-3.9c1-0.7,2.1-1,3.4-1.1c0.7,0,1.3,0.1,1.9,0.2c0.6,0.1,1.2,0.4,1.7,0.9c0.4-0.4,0.9-0.6,1.5-0.8
		c0.6-0.2,1.2-0.3,1.8-0.3c1.3,0,2.4,0.3,3.5,1s1.6,2,1.6,4V29h-1.5c-0.4,0-0.8-0.1-1.1-0.4c-0.1-0.3-0.3-0.6-0.3-1v-5.9
		c0-0.7-0.2-1.2-0.6-1.5s-0.9-0.5-1.4-0.5s-1,0.2-1.4,0.5C63.2,20.5,63,21,63,21.7v0.6V29z"/>
	<path class="st0" d="M78.8,25.5H81c-0.3,1.2-0.9,2.1-1.8,2.8c-0.9,0.7-2,1-3.4,1c-1.6,0-2.9-0.5-3.8-1.6c-0.9-1-1.4-2.5-1.4-4.4
		c0-1.8,0.4-3.3,1.3-4.3c0.9-1.1,2.2-1.6,3.8-1.6c1.7,0,3.1,0.5,4,1.6s1.4,2.5,1.4,4.4c0,0.1,0,0.2,0,0.3c0,0.1,0,0.1,0,0.2
		s0,0.2,0,0.3h-7.5c0,0.9,0.2,1.6,0.6,2c0.4,0.5,0.9,0.7,1.7,0.7c0.5,0,0.9-0.1,1.3-0.3c0.1,0,0.2-0.1,0.2-0.2
		c0.1-0.1,0.2-0.2,0.2-0.2c0-0.1,0.1-0.2,0.3-0.3C78.2,25.6,78.5,25.5,78.8,25.5z M73.6,22.1H78c-0.1-0.8-0.3-1.4-0.6-1.7
		c-0.4-0.4-0.9-0.6-1.6-0.6c-0.6,0-1.2,0.2-1.6,0.6C73.9,20.8,73.7,21.4,73.6,22.1z"/>
	<path class="st0" d="M81.6,29v-5.6c0-1.1,0.2-2.1,0.5-2.8c0.3-0.8,0.8-1.4,1.4-1.8c0.5-0.4,1.2-0.7,1.9-0.9
		c0.7-0.2,1.5-0.3,2.3-0.3c0.1,0,0.1,0,0.2,0s0.2,0,0.2,0v3.1h-1c-0.8,0-1.5,0.2-1.9,0.6s-0.6,1-0.6,1.9V29H81.6z"/>
	<path class="st0" d="M88.5,14.2h1.6c0.4,0,0.7,0.1,1,0.4c0.3,0.3,0.4,0.6,0.4,1V29h-3V14.2z"/>
	<path class="st0" d="M92.3,14.2h1.6c0.4,0,0.7,0.1,1,0.4c0.3,0.3,0.4,0.6,0.4,1v0.9h-3V14.2z M92.3,17.5h1.6c0.4,0,0.7,0.1,1,0.4
		s0.4,0.6,0.4,1v10h-3V17.5z"/>
	<path class="st0" d="M105.5,29H104c-0.4,0-0.8-0.1-1.1-0.4c-0.3-0.3-0.4-0.6-0.4-1.1v-5.9c0-0.7-0.2-1.2-0.6-1.5s-0.9-0.5-1.4-0.5
		s-1,0.2-1.4,0.5s-0.6,0.8-0.6,1.5V29h-3v-6.7c0-2,0.5-3.3,1.5-3.9c1-0.7,2.1-1,3.4-1.1c1.3,0,2.4,0.3,3.5,1s1.6,2,1.6,4V29z"/>
	<path class="st0" d="M110,13.8l-2.6,2.7H106l1.2-2.2c0.1-0.1,0.2-0.2,0.3-0.3c0.1-0.1,0.3-0.2,0.6-0.2H110z"/>
	<path class="st0" d="M110.4,14.2h1.6c0.4,0,0.7,0.1,1,0.4c0.3,0.3,0.4,0.6,0.4,1v0.9h-3V14.2z M110.4,17.5h1.6c0.4,0,0.7,0.1,1,0.4
		s0.4,0.6,0.4,1v10h-3V17.5z"/>
	<path class="st0" d="M123.6,29h-1.5c-0.4,0-0.8-0.1-1.1-0.4c-0.3-0.3-0.4-0.6-0.4-1.1v-5.9c0-0.7-0.2-1.2-0.6-1.5s-0.9-0.5-1.4-0.5
		s-1,0.2-1.4,0.5s-0.6,0.8-0.6,1.5V29h-3v-6.7c0-2,0.5-3.3,1.5-3.9c1-0.7,2.1-1,3.4-1.1c1.3,0,2.4,0.3,3.5,1s1.6,2,1.6,4V29z"/>
	<path class="st0" d="M132,17.5v4.2l3.7-4.2h3.6l-4.1,4.4l4.1,7.1h-3.6l-2.1-3.9c-0.4-0.8-0.8-1.1-1.1-1s-0.5,0.3-0.5,0.5v1.6V29h-3
		V14.2h1.6c0.4,0,0.7,0.1,1,0.4c0.3,0.3,0.4,0.6,0.4,1L132,17.5L132,17.5z"/>
	<path class="st0" d="M147.2,28.5c-0.6,0.3-1.2,0.5-1.9,0.6s-1.3,0.1-1.8,0.1c-1,0-1.9-0.3-2.7-0.8s-1.2-1.5-1.2-2.8
		c0-1.2,0.4-2.1,1.1-2.6c0.7-0.5,1.6-0.9,2.7-1c0.1,0,0.3,0,0.5-0.1c0.2,0,0.4-0.1,0.7-0.1c1.3-0.2,1.9-0.5,1.9-1.1
		c0-0.4-0.2-0.7-0.7-0.8c-0.4-0.1-0.9-0.2-1.2-0.2c-0.4,0-0.8,0.1-1.1,0.2s-0.5,0.3-0.7,0.6h-2.9c0.1-0.9,0.5-1.6,1.2-2.2
		c0.8-0.7,1.9-1,3.3-1c1.6,0,2.8,0.3,3.6,0.8c0.8,0.6,1.3,1.4,1.3,2.4v3.9c0,1.2-0.2,2-0.6,2.7S147.8,28.3,147.2,28.5z M146.5,23.2
		c-0.4,0.2-1,0.4-1.7,0.6l-1,0.2c-0.5,0.1-0.9,0.3-1.1,0.6c-0.2,0.3-0.3,0.6-0.3,0.9c0,0.4,0.1,0.8,0.4,1c0.3,0.2,0.6,0.3,1.1,0.3
		c0.8,0,1.4-0.2,1.9-0.7s0.7-1.1,0.7-1.9L146.5,23.2L146.5,23.2z"/>
	<path class="st0" d="M149.8,29v-2.3l6.2-6.8h-4.4c-0.4,0-0.7-0.1-1-0.4s-0.4-0.6-0.4-1v-0.9h9.4V20l-6.1,6.5h6.3V29H149.8z"/>
	<path class="st0" d="M167.5,28.5c-0.6,0.3-1.2,0.5-1.9,0.6s-1.3,0.1-1.8,0.1c-1,0-1.9-0.3-2.7-0.8s-1.2-1.5-1.2-2.8
		c0-1.2,0.4-2.1,1.1-2.6c0.7-0.5,1.6-0.9,2.7-1c0.1,0,0.3,0,0.5-0.1c0.2,0,0.4-0.1,0.7-0.1c1.3-0.2,1.9-0.5,1.9-1.1
		c0-0.4-0.2-0.7-0.7-0.8c-0.4-0.1-0.9-0.2-1.2-0.2c-0.4,0-0.8,0.1-1.1,0.2s-0.5,0.3-0.7,0.6h-2.9c0.1-0.9,0.5-1.6,1.2-2.2
		c0.8-0.7,1.9-1,3.3-1c1.6,0,2.8,0.3,3.6,0.8c0.8,0.6,1.3,1.4,1.3,2.4v3.9c0,1.2-0.2,2-0.6,2.7S168.1,28.3,167.5,28.5z M166.8,23.2
		c-0.4,0.2-1,0.4-1.7,0.6l-1,0.2c-0.5,0.1-0.9,0.3-1.1,0.6c-0.2,0.3-0.3,0.6-0.3,0.9c0,0.4,0.1,0.8,0.4,1c0.3,0.2,0.6,0.3,1.1,0.3
		c0.8,0,1.4-0.2,1.9-0.7s0.7-1.1,0.7-1.9L166.8,23.2L166.8,23.2z"/>
	<path class="st0" d="M180.1,29h-1.5c-0.4,0-0.8-0.1-1.1-0.4s-0.4-0.6-0.4-1.1v-5.9c0-0.7-0.2-1.2-0.6-1.5c-0.4-0.3-0.9-0.5-1.4-0.5
		s-1,0.2-1.4,0.5s-0.6,0.8-0.6,1.5V29h-3v-6.7c0-2,0.5-3.3,1.5-3.9c1-0.7,2.1-1,3.4-1.1c1.3,0,2.4,0.3,3.5,1s1.6,2,1.6,4V29z"/>
	<path class="st0" d="M180.8,17.5h1.6c0.4,0,0.7,0.1,1,0.4s0.4,0.6,0.4,1v10h-3V17.5z"/>
</g>
<g>
	<path class="st3" d="M33.7,40.4l-7.1-7.1c-2-2-5.2-2-7.1,0l-8.6,8.6c-2,2-2,5.2,0,7.1c2,2,5.2,2,7.1,0l8.6-8.6
		C28.5,38.4,31.7,38.4,33.7,40.4z"/>
	<path class="st3" d="M12.3,16.5l7.1,7.1c2,2,5.2,2,7.1,0l8.6-8.6c2-2,2-5.2,0-7.1c-2-2-5.2-2-7.1,0l-8.6,8.6
		C17.5,18.5,14.3,18.5,12.3,16.5z"/>
	<path class="st3" d="M18.4,15.5l3.6-3.6l-4-4c-2-2-5.2-2-7.1,0c-2,2-2,5.2,0,7.1C12.8,17,16.4,17.5,18.4,15.5z"/>
	<path class="st3" d="M10,33.1l-3.6-3.6l-4,4c-2,2-2,5.2,0,7.1c2,2,5.2,2,7.1,0C11.6,38.7,12,35,10,33.1z"/>
	<path class="st3" d="M27.6,41.4L24,45l4,4c2,2,5.2,2,7.1,0c2-2,2-5.2,0-7.1C33.2,39.9,29.6,39.4,27.6,41.4z"/>
	<path class="st3" d="M36,23.9l3.6,3.6l4-4c2-2,2-5.2,0-7.1c-2-2-5.2-2-7.1,0C34.4,18.3,34,21.9,36,23.9z"/>
	<path class="st3" d="M11.1,32c2,2,2,5.2,0,7.1l7.1-7.1c2-2,2-5.2,0-7.1l-8.6-8.6c-2-2-5.2-2-7.1,0c-2,2-2,5.2,0,7.1L11.1,32z"/>
	<path class="st3" d="M34.9,24.9c-2-2-2-5.2,0-7.1l-7.1,7.1c-2,2-2,5.2,0,7.1l8.6,8.6c2,2,5.2,2,7.1,0c2-2,2-5.2,0-7.1L34.9,24.9z"
		/>
</g>
</svg>
